<svg viewbox="0 0 512 512" width="512" height="512" xmlns="http://www.w3.org/2000/svg">
<defs>
  <linearGradient id="a" x1="0" y1="0" x2="100%" y2="100%">
    <stop offset="0.00" stop-color="#1DA1F2"/>
    <stop offset="0.33" stop-color="#053eff"/>
    <stop offset="0.66" stop-color="#E1306C"/>
    <stop offset="1.00" stop-color="#ff4500"/>
  </linearGradient>
</defs>
<rect x="0" y="0" fill="url(#a)" rx="10%" width="100%" height="100%" />
<g transform-origin="50% 50%" transform="translate(-10,10) rotate(144)" fill="url(#a)">
    <path d="m172.84 254.18 20.43 14.84L249.5 95.98l26.95 82.92h25.26L249.5 18.23l-76.66 235.95zm-7.81 24.02-52.2 160.66s87.58-63.62 136.67-99.3l20.44-14.84 43.6-31.67-7.81-24.03-56.23 40.85-20.43 14.85-70.55 51.25 26.95-82.92"/>
    <path d="m229.06 324.72 20.44-14.85-147.2-106.95h87.19l7.8-24.02H28.36l200.7 145.82zm80.45-121.8h-25.26l56.23 173.05-70.55-51.25-20.43 14.85 136.68 99.3-76.67-235.95z"/>
    <path d="m333.97 278.2 136.67-99.3H222.56l-7.81 24.02h181.96l-70.55 51.26 7.8 24.02z"/>
  </g>
</svg>